<?xml version="1.0" encoding="utf-8"?>
<!-- Generator: Adobe Illustrator 26.0.2, SVG Export Plug-In . SVG Version: 6.00 Build 0)  -->
<svg version="1.1" id="圖層_1" xmlns="http://www.w3.org/2000/svg" xmlns:xlink="http://www.w3.org/1999/xlink" x="0px" y="0px"
	 viewBox="0 0 240.5 138.3" style="enable-background:new 0 0 240.5 138.3;" xml:space="preserve">
<style type="text/css">
	.st0{fill:#E60012;}
	.st1{fill:#ED7D6F;}
	.st2{fill-rule:evenodd;clip-rule:evenodd;fill:#ED7D6F;}
	.st3{fill-rule:evenodd;clip-rule:evenodd;fill:#E60012;}
</style>
<path class="st0" d="M80.4,37.3v11.5c0,1.4-0.6,2-2,2h-5.6c-1.4,0-2-0.6-2-2v-9.9c0-3.7-1.3-5.2-3.5-5.2c-0.9,0-2.3,0.4-3.4,1
	c0,0,0.4,1.6,0.3,10.8v3.3c0,1.4-0.6,2-2,2h-5.6c-1.4,0-2-0.6-2-2v-9.9c0-3.7-1.3-5.2-3.5-5.2c-0.9,0-2.1,0.3-3.2,0.9v14.2
	c0,1.4-0.6,2-2,2h-5.6c-1.4,0-2-0.6-2-2V28.9c0-1.3-0.1-2.6,0.3-3c0.4-0.5,1.2-0.3,1.8,0.1c1,0.7,3,1.5,5,1.5c1.5,0,2.4-0.2,5.2-0.9
	c2.8-0.7,4.4-1.3,6-1.4c3.1-0.2,6.1,0.9,6.6,3.2c3.5-2.2,6.3-2.8,9-2.8c2.2,0,4.3,0.7,5.7,1.9C79.8,29.4,80.4,32,80.4,37.3
	 M114.6,37.5c0,1.4-0.6,2-2,2h-17c0.2,3.4,3.4,5.6,6.8,6.1c5.7,0.8,9.8-2.1,10.2-2.2c0.5-0.2,0.9,0.1,0.9,0.5
	c0.1,0.7-0.3,1.9-1.1,3.1c-3.6,5.1-9.9,5.3-13.5,5C90.7,51.6,85,46.5,85,38.3c0-8.2,6.7-13.6,15.8-13.6
	C109.6,24.7,114.6,31.2,114.6,37.5 M100.9,30.4c-3.4,0-5,2.7-5.3,4.4h9.5C105.2,33.2,104,30.4,100.9,30.4 M155.4,23
	c2.7,0,4.8-2.2,4.8-4.8c0-2.7-2.2-4.8-4.8-4.8c-2.7,0-4.8,2.2-4.8,4.8C150.6,20.8,152.8,23,155.4,23 M160.3,48.7v-20
	c0-1.4-0.6-2-2-2h-5.6c-1.4,0-2,0.6-2,2v20c0,1.4,0.6,2,2,2h5.6C159.7,50.8,160.3,50.2,160.3,48.7 M123.9,23c2.7,0,4.8-2.2,4.8-4.8
	c0-2.7-2.2-4.8-4.8-4.8s-4.8,2.2-4.8,4.8C119.1,20.8,121.3,23,123.9,23 M128.8,48.7v-20c0-1.4-0.6-2-2-2h-5.6c-1.4,0-2,0.6-2,2v20
	c0,1.4,0.6,2,2,2h5.6C128.2,50.8,128.8,50.2,128.8,48.7 M139.8,23c2.7,0,4.8-2.2,4.8-4.8c0-2.7-2.2-4.8-4.8-4.8s-4.8,2.2-4.8,4.8
	C134.9,20.8,137.1,23,139.8,23 M144.6,28.8c0-1.4-0.6-2-2-2H137c-1.4,0-2,0.6-2,2V48c0,5.4-0.4,7-2.6,8.2c-1.9,1.1-4.6,1.1-6.6,0.5
	c-0.5-0.2-0.7-0.2-1-0.1c-0.3,0.1-0.4,0.4-0.3,0.8c0.6,1.8,3.6,4.7,9.1,4.7c4.9,0,10.2-2.5,10.9-9.2c0.1-1.5,0.1-2.4,0.1-4.2
	L144.6,28.8L144.6,28.8z"/>
<g>
	<path class="st1" d="M181,78.2l0.7,0l0.7,0l0.6,0.1l0.6,0.1l0.6,0.1l0.6,0.1l0.6,0.2l0.6,0.2l0.5,0.2l0.5,0.2l0.5,0.2l0.4,0.2
		l0.5,0.3l0.4,0.3l0.4,0.3l0.4,0.3l0.4,0.3l0.3,0.3l0.3,0.3l0.3,0.4l0.3,0.3l0.3,0.4l0.3,0.4l0.2,0.4l0.2,0.4l0.2,0.4l0.2,0.4
		l0.2,0.4l0.2,0.4l0.2,0.5l0.1,0.4l0.1,0.5l0.1,0.4l0.1,0.5l0.1,0.4l0,0.4l0,0.5l0,0.4l0,0.4l0,0.3l0,0.3l0,0.3l0,0.3l0,0.2
		l-0.1,0.3l-0.1,0.2l-0.1,0.2l-0.1,0.2l-0.1,0.2L193,93l-0.2,0.2l-0.2,0.1l-0.2,0.1l-0.2,0.1l-0.2,0.1l-0.2,0.1l-0.3,0l-0.3,0h-14
		l-0.2,0c0,0-0.1,0-0.1,0l-0.1,0c0,0-0.1,0-0.1,0l-0.1,0.1c0,0-0.1,0-0.1,0.1l-0.1,0.1c0,0-0.1,0.1-0.1,0.1l-0.1,0.1
		c0,0-0.1,0.1-0.1,0.1l-0.1,0.1c0,0,0,0.1-0.1,0.1l0,0.1c0,0,0,0.1,0,0.1l0,0.2c0,0,0,0.1,0,0.1v0.2c0,0,0,0.1,0,0.1l0,0.2
		c0,0,0,0,0,0l0,0.2v0l0.1,0.2v0l0.1,0.2c0,0,0,0,0,0l0.1,0.2v0l0.1,0.2c0,0,0,0,0,0l0.1,0.2v0l0.1,0.2c0,0,0,0,0,0l0.1,0.2
		c0,0,0,0,0,0l0.1,0.2c0,0,0,0,0,0l0.1,0.2l0,0l0.1,0.2c0,0,0,0,0,0l0.2,0.2c0,0,0,0,0,0l0.2,0.2c0,0,0,0,0,0l0.2,0.2c0,0,0,0,0,0
		l0.2,0.2c0,0,0,0,0,0l0.2,0.2c0,0,0,0,0,0l0.2,0.2c0,0,0,0,0,0l0.2,0.1c0,0,0,0,0,0l0.3,0.1c0,0,0,0,0,0l0.3,0.1c0,0,0,0,0,0
		l0.3,0.1c0,0,0,0,0.1,0l0.3,0.1c0,0,0,0,0,0l0.4,0.1c0,0,0,0,0,0l0.4,0c0,0,0,0,0,0l0.4,0h0l0.4,0c0,0,0,0,0.1,0l0.4,0
		c0,0,0,0,0.1,0l0.4-0.1c0,0,0,0,0,0l0.4-0.1c0,0,0,0,0.1,0l0.4-0.1c0,0,0,0,0,0l0.3-0.1c0,0,0,0,0,0l0.3-0.2c0,0,0,0,0,0l0.3-0.2
		l0,0l0.3-0.2c0,0,0,0,0,0l0.3-0.2l0,0l0.3-0.2l0,0l0.3-0.3v0l0.3-0.3l0,0l0.3-0.3l0.3-0.2l0.2-0.1l0.2-0.1l0.1-0.1l0.2-0.1l0.1-0.1
		l0.2-0.1l0.2-0.1l0.2-0.1l0.2-0.1l0.2,0l0.3,0l0.3,0l0.3,0l0.3,0.1l0.3,0.1l0.2,0.1l0.3,0.1l0.3,0.2L191,97l0.2,0.2l0.2,0.2
		l0.2,0.2l0.2,0.2l0.1,0.2l0.1,0.2l0.1,0.2l0.1,0.3l0,0.2l0,0.3l0,0.2l0,0.2l0,0.2l-0.1,0.3l-0.1,0.2l-0.1,0.2l-0.2,0.3l-0.2,0.3
		l-0.2,0.3l-0.2,0.2l-0.3,0.3l-0.3,0.3l-0.3,0.3L190,103l-0.4,0.3l-0.4,0.3l-0.4,0.2l-0.5,0.3l-0.4,0.2l-0.5,0.2l-0.5,0.2l-0.5,0.2
		l-0.4,0.1l-1.5-0.3h0l-1.7-0.3h0l-1.7-0.3l0,0l-1.7-0.3l0,0l-1.8-0.2h0l-1.8-0.2h0l-1.8-0.2l0,0l-1.6-0.2l-0.3-0.3l-0.4-0.4
		l-0.4-0.4l-0.4-0.4l-0.4-0.4l-0.3-0.5l-0.3-0.5l-0.3-0.5l-0.3-0.5l-0.2-0.5l-0.2-0.5l-0.2-0.5l-0.2-0.6l-0.2-0.6l-0.1-0.6l-0.1-0.6
		l-0.1-0.6l-0.1-0.6l-0.1-0.6l0-0.6l0-0.6l0-0.6l0-0.6l0-0.6l0-0.6l0.1-0.6l0.1-0.5l0,0l0.1-0.6l0.1-0.5l0.1-0.5l0.2-0.5l0.2-0.5
		l0.2-0.5l0.2-0.5l0.2-0.5l0.2-0.4l0.3-0.5l0.3-0.4l0.3-0.4l0.3-0.4l0.4-0.4l0.4-0.4l0.4-0.3l0.4-0.4h0l0.4-0.3l0.5-0.3l0.4-0.3
		l0.5-0.3l0.5-0.2l0.5-0.2l0.5-0.2l0.6-0.2l0.6-0.2l0.6-0.2l0.6-0.1l0.6-0.1l0.7-0.1l0.7-0.1l0.7,0L181,78.2z M180.9,84
		C180.9,84,180.9,84,180.9,84l-0.4,0c0,0,0,0,0,0l-0.4,0c0,0,0,0-0.1,0l-0.4,0.1c0,0,0,0,0,0l-0.4,0.1c0,0,0,0-0.1,0l-0.3,0.1
		c0,0,0,0-0.1,0l-0.3,0.1c0,0,0,0,0,0l-0.3,0.2c0,0,0,0-0.1,0l-0.3,0.2c0,0,0,0-0.1,0l-0.3,0.2c0,0,0,0,0,0l-0.2,0.2c0,0,0,0,0,0
		l-0.2,0.3c0,0,0,0,0,0l-0.2,0.3c0,0,0,0,0,0l-0.2,0.3c0,0,0,0,0,0l-0.2,0.3c0,0,0,0,0,0.1l-0.1,0.3c0,0,0,0,0,0l-0.1,0.3
		c0,0,0,0,0,0.1l0,0.2c0,0,0,0.1,0,0.1l0,0.2c0,0,0,0,0,0.1l0,0.2c0,0,0,0.1,0,0.1l0,0.1c0,0,0,0.1,0,0.1l0,0.1c0,0,0,0.1,0,0.1
		l0.1,0.1c0,0,0,0.1,0.1,0.1l0.1,0.1c0,0,0.1,0.1,0.1,0.1l0.1,0.1c0,0,0.1,0.1,0.1,0.1l0.1,0.1c0,0,0.1,0,0.1,0.1l0.1,0
		c0,0,0.1,0,0.1,0l0.1,0c0,0,0,0,0.1,0h7c0,0,0,0,0.1,0l0.1,0c0,0,0.1,0,0.1,0l0.1,0c0,0,0.1,0,0.1-0.1l0.1-0.1c0,0,0.1,0,0.1-0.1
		l0.1-0.1c0,0,0.1-0.1,0.1-0.1l0.1-0.1c0,0,0-0.1,0.1-0.1l0.1-0.1c0,0,0-0.1,0-0.1l0-0.1c0,0,0-0.1,0-0.1l0-0.1c0,0,0,0,0,0l0-0.1
		c0,0,0-0.1,0-0.1v-0.1c0,0,0,0,0-0.1l0-0.1c0,0,0,0,0-0.1l0-0.1c0,0,0,0,0,0l-0.1-0.3c0,0,0,0,0,0l-0.1-0.3c0,0,0,0,0,0l-0.1-0.3
		c0,0,0,0,0,0l-0.1-0.3c0,0,0,0,0,0l0-0.1l0,0l0-0.1c0,0,0,0,0,0l-0.1-0.1l0,0l-0.1-0.1c0,0,0,0,0,0l-0.1-0.1c0,0,0,0,0,0l-0.1-0.1
		l0,0l-0.1-0.1c0,0,0,0,0,0l-0.1-0.1c0,0,0,0,0,0l-0.1-0.1c0,0,0,0,0,0l-0.2-0.1c0,0,0,0,0,0l-0.2-0.1c0,0,0,0,0,0l-0.2-0.1
		c0,0,0,0,0,0l-0.2-0.1c0,0,0,0,0,0l-0.2-0.1c0,0,0,0,0,0l-0.2-0.1c0,0,0,0,0,0l-0.3-0.1c0,0,0,0-0.1,0l-0.3-0.1c0,0,0,0,0,0
		l-0.3-0.1c0,0,0,0,0,0l-0.3,0c0,0,0,0,0,0L180.9,84z"/>
	<path class="st2" d="M171.9,103.5l1.8,0.2l1.8,0.2l1.8,0.2l1.8,0.2l1.7,0.3l1.7,0.3l1.7,0.3l1.6,0.3l0.6-0.2l0.6-0.2l0.6-0.2
		l0.5-0.2l0.5-0.2l0.5-0.3l0.4-0.3l0.4-0.3l0.4-0.3l0.4-0.3l0.3-0.3l0.3-0.3l0.3-0.3l0.2-0.3l0.2-0.3l0.2-0.3l0.2-0.3l0.1-0.3
		l0.1-0.3l0.1-0.3l0.1-0.3l0-0.3l0-0.3l0-0.3l0-0.3l-0.1-0.3l-0.1-0.3l-0.1-0.3l-0.2-0.3l-0.2-0.3l-0.2-0.2l-0.2-0.2l-0.3-0.2
		l-0.3-0.2l-0.3-0.2l-0.3-0.1l-0.3-0.1l-0.3-0.1l-0.4-0.1l-0.4,0l-0.4,0l-0.3,0l-0.3,0l-0.3,0.1l-0.3,0.1l-0.2,0.1l-0.2,0.1
		l-0.2,0.1l-0.2,0.1l-0.2,0.1l-0.2,0.1l-0.2,0.1l-0.3,0.2l-0.3,0.3l-0.3,0.3l-0.3,0.3l-0.3,0.2l-0.3,0.2l-0.3,0.2l-0.3,0.2l-0.3,0.2
		l-0.3,0.1l-0.4,0.1l-0.4,0.1l-0.4,0.1l-0.4,0l-0.4,0l-0.4,0l-0.4,0l-0.4-0.1l-0.3-0.1l-0.3-0.1l-0.3-0.1l-0.3-0.1l-0.2-0.1
		l-0.2-0.2l-0.2-0.2l-0.2-0.2l-0.2-0.2l-0.2-0.2l-0.2-0.2l-0.1-0.2l-0.1-0.2l-0.1-0.2l-0.1-0.2l-0.1-0.2l-0.1-0.2l-0.1-0.2l-0.1-0.2
		l-0.1-0.2l-0.1-0.2l0-0.2l0-0.2l0-0.2l0-0.2l0-0.1l0.1-0.1l0.1-0.1l0.1-0.1l0.1,0l0.1,0l0.2,0h14l0.3,0l0.3,0l0.3-0.1l0.3-0.1
		l0.2-0.1l0.2-0.1l0.2-0.2l0.2-0.2l0.2-0.2l0.2-0.2l0.1-0.2l0.1-0.3l0.1-0.3l0.1-0.3l0.1-0.3l0.1-0.3l0-0.3l0-0.3l0-0.4l0-0.5l0-0.5
		l0-0.5l-0.1-0.5l-0.1-0.5l-0.1-0.5L194,87l-0.1-0.5l-0.1-0.4l-0.2-0.5l-0.2-0.4l-0.2-0.4l-0.2-0.4l-0.2-0.4l-0.2-0.4l-0.3-0.4
		l-0.3-0.4l-0.3-0.4l-0.3-0.4l-0.3-0.4l-0.3-0.3l-0.4-0.3l-0.4-0.3l-0.4-0.3l-0.4-0.3l-0.5-0.3l-0.5-0.3l-0.5-0.2l-0.5-0.2l-0.5-0.2
		l-0.6-0.2l-0.6-0.2l-0.6-0.2l-0.6-0.1l-0.6-0.1l-0.6-0.1l-0.7-0.1l-0.7,0l-0.7,0l-0.7,0l-0.7,0l-0.7,0.1l-0.7,0.1l-0.7,0.1
		l-0.6,0.1l-0.6,0.2l-0.6,0.2l-0.6,0.2l-0.6,0.2l-0.5,0.2l-0.5,0.3l-0.5,0.3l-0.5,0.3l-0.5,0.3l-0.4,0.3l-0.4,0.4l-0.4,0.4l-0.4,0.4
		l-0.4,0.4l-0.3,0.4l-0.3,0.4l-0.3,0.5l-0.3,0.5l-0.3,0.5l-0.2,0.5l-0.2,0.5l-0.2,0.5l-0.2,0.5l-0.2,0.5l-0.1,0.6l-0.1,0.6l-0.1,0.6
		l-0.1,0.6l-0.1,0.6l0,0.6l0,0.6l0,0.6l0,0.6l0,0.6l0,0.6l0.1,0.6l0.1,0.6l0.1,0.6l0.1,0.6l0.1,0.6l0.2,0.6l0.2,0.6l0.2,0.6l0.2,0.6
		l0.3,0.5l0.3,0.5l0.3,0.5l0.3,0.5l0.3,0.5l0.4,0.5l0.4,0.4l0.4,0.4l0.4,0.4L171.9,103.5z M176.7,87.8l0.1-0.3l0.1-0.3l0.2-0.3
		l0.2-0.3l0.2-0.3l0.2-0.3l0.2-0.2l0.3-0.2l0.3-0.2l0.3-0.2l0.3-0.1l0.3-0.1l0.4-0.1l0.4-0.1l0.4,0l0.4,0l0.4,0l0.3,0l0.3,0.1
		l0.3,0.1l0.3,0.1l0.2,0.1l0.2,0.1l0.2,0.1l0.2,0.1l0.2,0.1l0.2,0.1l0.1,0.1l0.1,0.1l0.1,0.1l0.1,0.1l0.1,0.1l0.1,0.1l0.1,0.1
		l0.1,0.1l0,0.1l0.1,0.3l0.1,0.3l0.1,0.3l0.1,0.3l0,0.1l0,0.1v0.1l0,0.1l0,0.1l0,0.1l-0.1,0.1l-0.1,0.1l-0.1,0.1l-0.1,0.1l-0.1,0
		l-0.1,0h-7l-0.1,0l-0.1,0l-0.1-0.1l-0.1-0.1l-0.1-0.1l-0.1-0.1l0-0.1l0-0.1v-0.1l0-0.2L176.7,87.8z"/>
	<path class="st1" d="M150.1,83.8C150.1,83.8,150.1,83.8,150.1,83.8l-0.4,0c0,0,0,0-0.1,0l-0.3,0c0,0,0,0-0.1,0l-0.3,0.1
		c0,0,0,0-0.1,0l-0.3,0.1c0,0,0,0-0.1,0l-0.3,0.1c0,0,0,0-0.1,0l-0.3,0.2c0,0,0,0-0.1,0l-0.3,0.2c0,0,0,0-0.1,0l-0.3,0.2
		c0,0,0,0,0,0l-0.2,0.2c0,0,0,0,0,0l-0.2,0.3c0,0,0,0,0,0l-0.2,0.3c0,0,0,0,0,0l-0.2,0.3c0,0,0,0,0,0l-0.2,0.3c0,0,0,0,0,0l-0.1,0.3
		c0,0,0,0,0,0l-0.1,0.3c0,0,0,0,0,0l-0.1,0.3c0,0,0,0,0,0l-0.1,0.3l0,0l-0.1,0.3l0,0l-0.1,0.3c0,0,0,0,0,0l-0.1,0.4v0l-0.1,0.3v0
		l0,0.3v0l0,0.3l0,0l0,0.3l0,0l0,0.3v0l0,0.3v0v0.3l0,0.3v0v0.2v0.2v0.2v0l0,0.2v0.2v0l0,0.2v0l0,0.2v0l0,0.2l0,0.2v0l0,0.3v0l0,0.3
		l0,0l0,0.3l0,0l0,0.3v0l0.1,0.3v0l0.1,0.3c0,0,0,0,0,0l0.1,0.3v0l0.1,0.3c0,0,0,0,0,0l0.1,0.3v0l0.1,0.3c0,0,0,0,0,0l0.1,0.3
		c0,0,0,0,0,0l0.1,0.3c0,0,0,0,0,0l0.1,0.3c0,0,0,0,0,0l0.1,0.2c0,0,0,0,0,0l0.2,0.2c0,0,0,0,0,0l0.2,0.2c0,0,0,0,0,0l0.2,0.2
		c0,0,0,0,0,0l0.2,0.2c0,0,0,0,0,0l0.2,0.2c0,0,0,0,0,0l0.2,0.2c0,0,0,0,0.1,0l0.2,0.2c0,0,0,0,0,0l0.3,0.1c0,0,0,0,0.1,0l0.3,0.1
		c0,0,0,0,0.1,0l0.3,0.1c0,0,0,0,0.1,0l0.3,0.1c0,0,0,0,0,0l0.3,0c0,0,0,0,0.1,0l0.4,0h0.1l0.4,0c0,0,0,0,0.1,0l0.4-0.1c0,0,0,0,0,0
		l0.3-0.1c0,0,0,0,0.1,0l0.3-0.1c0,0,0,0,0,0l0.3-0.1c0,0,0,0,0,0l0.3-0.2c0,0,0,0,0.1,0l0.3-0.2c0,0,0,0,0,0l0.3-0.2c0,0,0,0,0,0
		l0.3-0.2c0,0,0,0,0,0l0.2-0.2c0,0,0,0,0,0l0.2-0.3c0,0,0,0,0,0l0.2-0.3c0,0,0,0,0,0l0.2-0.3c0,0,0,0,0,0l0.2-0.3c0,0,0,0,0,0
		l0.1-0.3c0,0,0,0,0,0l0.1-0.4c0,0,0,0,0,0l0.1-0.4l0,0l0.1-0.4c0,0,0,0,0,0l0.1-0.4c0,0,0,0,0,0l0.1-0.4v0l0.1-0.4v0l0.1-0.4
		c0,0,0,0,0,0l0-0.4l0,0l0-0.4v0l0-0.4v0l0-0.4l0,0v-0.4v0l0-0.6c0,0,0,0,0,0l0-0.6v0l-0.1-0.6c0,0,0,0,0,0l-0.1-0.5c0,0,0,0,0,0
		l-0.1-0.5c0,0,0,0,0,0l-0.1-0.5c0,0,0,0,0,0l-0.1-0.4c0,0,0,0,0,0l-0.1-0.4c0,0,0,0,0,0l-0.1-0.4c0,0,0,0,0,0l-0.2-0.4c0,0,0,0,0,0
		l-0.2-0.3c0,0,0,0,0,0l-0.2-0.3c0,0,0,0,0,0l-0.2-0.3c0,0,0,0,0,0l-0.2-0.3c0,0,0,0,0,0l-0.2-0.2c0,0,0,0,0,0l-0.3-0.2c0,0,0,0,0,0
		l-0.3-0.2c0,0,0,0,0,0l-0.3-0.2c0,0,0,0-0.1,0l-0.3-0.1c0,0,0,0,0,0l-0.3-0.1c0,0,0,0-0.1,0l-0.3-0.1c0,0,0,0,0,0l-0.3-0.1
		c0,0,0,0-0.1,0l-0.3,0c0,0,0,0,0,0L150.1,83.8z M140.9,71.1l0.3,0l0.2,0l0.3,0l0.3,0.1l0.3,0.1l0.2,0.1l0.3,0.1l0.2,0.1l0.3,0.2
		l0.2,0.1l0.2,0.2l0.2,0.2l0.2,0.2l0.2,0.2l0.2,0.2l0.1,0.2l0.1,0.2l0.1,0.3l0.1,0.3l0.1,0.3l0.1,0.3l0,0.3l0,0.4v3.8c0,0,0,0,0,0
		l0,0.2c0,0,0,0,0,0.1l0,0.2c0,0,0,0.1,0,0.1l0,0.1c0,0,0,0.1,0,0.1l0.1,0.1c0,0,0,0.1,0.1,0.1l0.1,0.1c0,0,0.1,0.1,0.1,0.1l0.1,0.1
		c0,0,0.1,0.1,0.1,0.1l0.1,0.1c0.1,0,0.1,0,0.1,0.1l0.1,0c0.1,0,0.1,0,0.1,0h0.1c0,0,0.1,0,0.1,0l0.1,0c0,0,0.1,0,0.1,0l0.1-0.1
		c0,0,0,0,0.1,0l0.2-0.1c0,0,0,0,0.1,0l0.2-0.1h0l0.2-0.2l0.3-0.2l0.3-0.2l0.3-0.2l0.3-0.2l0,0l0.4-0.2l0.4-0.2l0,0l0.4-0.1l0.4-0.1
		l0.4-0.1l0,0l0.4-0.1l0.4-0.1l0.4-0.1l0.4-0.1l0.4,0l0.3,0l0.4,0l0.4,0l0.4,0l0.4,0.1l0.4,0.1l0.4,0.1l0.4,0.1l0.4,0.1l0,0l0.4,0.1
		l0.4,0.2l0.4,0.2l0.4,0.2l0.4,0.2l0.4,0.2l0.4,0.2l0.4,0.3l0.4,0.3l0.3,0.3l0.4,0.3l0.3,0.3l0.3,0.3l0.3,0.4l0.3,0.4l0.3,0.4
		l0.3,0.4l0.2,0.4l0.2,0.5l0.2,0.5l0.2,0.5l0.2,0.6l0.2,0.6l0.2,0.6l0.1,0.6l0.1,0.6l0.1,0.7l0.1,0.7l0.1,0.7l0,0.7l0,0.8l0,0.8
		l0,0.7l-0.1,0.7l-0.1,0.7l-0.1,0.7l-0.1,0.7l-0.2,0.6l-0.2,0.6l-0.2,0.6l-0.2,0.6l-0.3,0.6l-0.3,0.5l-0.3,0.5l-0.3,0.5l-0.4,0.5
		l-0.4,0.4l-0.2,0.2l-2.2-0.1h0l-2.5-0.1h0l-2.5-0.1h0l-2.5,0h0h-2.5l0,0l-2.5,0h0l-2.5,0.1l0,0l-2.5,0.1h0l-2.5,0.1h0l-1.9,0.1
		l-0.1-0.3v0l0-0.4l0,0l0-0.4l0-0.4v-0.4V77.5l0-0.5l0-0.4l0-0.4l0-0.4l0-0.3l0-0.3l0-0.3l0,0l0.1-0.3l0.1-0.2l0.1-0.3l0.1-0.2
		l0.1-0.3l0.1-0.2l0.2-0.2l0,0l0.1-0.2l0.2-0.3l0.2-0.2l0.2-0.2l0.2-0.2l0.2-0.1l0.2-0.1l0.2-0.1l0.2-0.1l0.2-0.1l0,0l0.2-0.1
		l0.2-0.1l0.2,0l0,0l0.2,0l0.2,0l0.2,0L140.9,71.1z"/>
	<path class="st2" d="M160.9,102.6l0.4-0.4l0.4-0.5l0.4-0.5l0.3-0.5l0.3-0.6l0.3-0.6l0.3-0.6l0.2-0.6l0.2-0.6l0.2-0.7l0.2-0.7
		l0.1-0.7l0.1-0.7l0.1-0.7l0.1-0.8l0-0.8l0-0.8l0-0.8l0-0.7l-0.1-0.7l-0.1-0.7l-0.1-0.7l-0.1-0.7l-0.1-0.6l-0.2-0.6l-0.2-0.6
		l-0.2-0.6l-0.2-0.5l-0.2-0.5l-0.2-0.5l-0.3-0.5l-0.3-0.5l-0.3-0.4l-0.3-0.4l-0.3-0.4l-0.3-0.4l-0.3-0.3l-0.4-0.3l-0.4-0.3l-0.4-0.3
		l-0.4-0.3l-0.4-0.3l-0.4-0.2l-0.4-0.2l-0.4-0.2l-0.4-0.2l-0.4-0.2l-0.4-0.1l-0.4-0.1l-0.4-0.1L155,78l-0.4-0.1l-0.4-0.1l-0.4,0
		l-0.4,0l-0.4,0l-0.4,0l-0.4,0l-0.4,0.1l-0.4,0.1l-0.4,0.1l-0.4,0.1l-0.4,0.1l-0.4,0.1l-0.4,0.1l-0.4,0.2l-0.4,0.2l-0.4,0.2
		l-0.3,0.2l-0.3,0.2l-0.3,0.2l-0.3,0.2l-0.2,0.1l-0.2,0.1l-0.1,0.1l-0.1,0h-0.1l-0.1,0l-0.1-0.1l-0.1-0.1l-0.1-0.1l-0.1-0.1l0-0.1
		l0-0.2l0-0.2v-3.8l0-0.4l0-0.4l-0.1-0.4l-0.1-0.4l-0.1-0.3l-0.1-0.3l-0.2-0.3l-0.2-0.3l-0.2-0.3l-0.2-0.2l-0.2-0.2l-0.2-0.2
		l-0.2-0.2l-0.3-0.2l-0.3-0.2l-0.3-0.1l-0.3-0.1l-0.3-0.1l-0.3-0.1l-0.3-0.1l-0.3-0.1l-0.3,0l-0.3,0h-0.2l-0.2,0l-0.2,0l-0.2,0
		l-0.2,0l-0.2,0.1l-0.2,0.1l-0.3,0.1l-0.2,0.1l-0.3,0.1l-0.2,0.2l-0.2,0.2l-0.2,0.2l-0.2,0.2l-0.2,0.3l-0.2,0.3l-0.2,0.2l-0.2,0.2
		l-0.1,0.3l-0.1,0.3l-0.1,0.3l-0.1,0.3l-0.1,0.3l-0.1,0.3l-0.1,0.3l0,0.3l0,0.4l0,0.4l0,0.4l0,0.4l0,0.5v22.8v0.4l0,0.4l0,0.4l0,0.4
		l0.1,0.4l0.1,0.4l2.4-0.1l2.5-0.1l2.5-0.1l2.5-0.1l2.5,0h2.5l2.5,0l2.5,0.1l2.5,0.1L160.9,102.6z M147.8,85.1l0.3-0.2l0.3-0.2
		l0.3-0.1l0.3-0.1l0.3-0.1l0.3-0.1l0.3,0l0.3,0l0.3,0l0.3,0.1l0.3,0.1l0.3,0.1l0.3,0.1l0.3,0.2l0.3,0.2l0.3,0.2l0.3,0.2l0.2,0.3
		l0.2,0.3l0.2,0.3l0.2,0.3l0.2,0.4l0.2,0.4l0.1,0.4l0.1,0.5l0.1,0.5l0.1,0.5l0.1,0.5l0.1,0.6l0,0.6l0,0.6v0.4l0,0.4l0,0.4l0,0.4
		l0,0.4l-0.1,0.4l-0.1,0.4l-0.1,0.4l-0.1,0.4l-0.1,0.4l-0.1,0.4l-0.1,0.4l-0.1,0.3l-0.2,0.3l-0.2,0.3l-0.2,0.3l-0.2,0.3l-0.2,0.2
		l-0.3,0.2l-0.3,0.2l-0.3,0.2l-0.3,0.2l-0.3,0.1l-0.3,0.1l-0.4,0.1l-0.4,0.1l-0.4,0l-0.4,0l-0.4,0l-0.3-0.1l-0.3-0.1l-0.3-0.1
		l-0.3-0.1l-0.3-0.1l-0.2-0.2l-0.2-0.2l-0.2-0.2l-0.2-0.2l-0.2-0.2l-0.2-0.2l-0.1-0.2l-0.1-0.3l-0.1-0.3l-0.1-0.3l-0.1-0.3l-0.1-0.3
		l-0.1-0.3l-0.1-0.3l-0.1-0.3l-0.1-0.3l0-0.3l0-0.3l0-0.3l0-0.3l0-0.2l0-0.2l0-0.2l0-0.2v-0.2v-0.2v-0.2V92v-0.2v-0.3v-0.3l0-0.3
		l0-0.3l0-0.3l0-0.3l0-0.3l0.1-0.4l0.1-0.4l0.1-0.3l0.1-0.3l0.1-0.3l0.1-0.3l0.1-0.3l0.1-0.3l0.2-0.3l0.2-0.3l0.2-0.3l0.2-0.3
		l0.2-0.2L147.8,85.1z"/>
	<path class="st1" d="M107.4,83.8L107.4,83.8l0-0.3v-0.3l0-0.3l0-0.3l0,0l0-0.3h0l0-0.3l0,0l0.1-0.3l0.1-0.3l0.1-0.3l0.1-0.2
		l0.1-0.3l0.1-0.2l0.2-0.3l0.1-0.2l0.2-0.3l0.2-0.2l0.2-0.1l0.2-0.2l0.2-0.1l0.2-0.1l0.2-0.1l0.2-0.1l0.2-0.1l0.2,0l0.2,0l0,0l0.2,0
		l0.2,0h0.2l0.4,0l0.3,0l0.3,0.1l0.3,0.1l0.2,0.1l0.3,0.1l0.2,0.1l0.2,0.1l0.2,0.2l0.2,0.2l0.2,0.3l0.2,0.2l0.2,0.2l0.1,0.3l0.1,0.3
		l0.1,0.2l0.1,0.3l0.1,0.3l0.1,0.3l0.1,0.3l0,0l0,0.3l0,0.3l0,0.3l0,0.3v0.3v10.4v0.3v0v0.3c0,0,0,0,0,0l0,0.3c0,0,0,0,0,0l0,0.3
		c0,0,0,0,0,0l0.1,0.3c0,0,0,0,0,0.1l0.1,0.3c0,0,0,0,0,0.1l0.1,0.3c0,0,0,0,0,0.1l0.1,0.3c0,0,0,0,0,0.1l0.2,0.3c0,0,0,0,0,0.1
		l0.2,0.2c0,0,0,0,0,0.1l0.2,0.2c0,0,0,0,0.1,0.1l0.2,0.2c0,0,0,0,0.1,0l0.3,0.2c0,0,0,0,0,0l0.3,0.2c0,0,0,0,0.1,0l0.3,0.1
		c0,0,0,0,0.1,0l0.3,0.1c0,0,0,0,0.1,0l0.4,0.1c0,0,0,0,0,0l0.4,0.1c0,0,0,0,0.1,0l0.4,0c0,0,0,0,0,0l0.4,0h0l0.4,0h0l0.4,0
		c0,0,0,0,0,0l0.3,0c0,0,0,0,0,0l0.3-0.1c0,0,0,0,0,0l0.3-0.1c0,0,0,0,0,0l0.2-0.1c0,0,0,0,0,0l0.2-0.1c0,0,0,0,0,0l0.2-0.1
		c0,0,0,0,0.1,0l0.2-0.1c0,0,0,0,0,0l0.2-0.1c0,0,0,0,0,0l0.1-0.1c0,0,0,0,0,0l0.1-0.1c0,0,0,0,0,0l0.1-0.1c0,0,0,0,0,0l0.1-0.1l0,0
		l0.1-0.1c0,0,0,0,0,0l0.1-0.1l0,0l0.1-0.1l0,0l0.1-0.1l0.1-0.1c0,0,0,0,0-0.1l0.1-0.1c0,0,0,0,0,0l0.1-0.1v0l0.1-0.1c0,0,0,0,0-0.1
		l0-0.1c0,0,0,0,0,0l0-0.1c0,0,0,0,0,0l0-0.1c0,0,0,0,0,0l0-0.1v0l0-0.1c0,0,0,0,0,0l0-0.2v0l0-0.2v0l0-0.2v0l0-0.2l0,0l0-0.2v0
		l0-0.2v-0.3v-0.3v0v-0.3v-0.4l0-10.1l0-0.3l0-0.3l0-0.3l0-0.3l0,0l0-0.3l0-0.3l0.1-0.3l0.1-0.3l0.1-0.3l0.1-0.3l0.1-0.3l0.1-0.3
		l0.2-0.2l0.2-0.3l0.2-0.2l0.2-0.2l0.2-0.2l0.2-0.1l0.3-0.1l0.3-0.1l0.2-0.1l0.3-0.1l0.3-0.1l0.3,0l0.4,0h0.2l0.2,0l0.2,0v0l0.2,0
		l0.2,0l0.2,0.1l0.2,0.1l0.2,0.1l0.2,0.1l0.2,0.1l0.2,0.1l0.2,0.2l0.2,0.2l0.2,0.2l0.2,0.2l0.2,0.2l0.2,0.3l0.1,0.3l0.1,0.3l0.1,0.2
		l0.1,0.3l0.1,0.3l0,0l0.1,0.3l0,0.3l0,0.3h0l0,0.3l0,0.2v0.2v0.2v0.2v9v0.6l0,0.6l0,0.6l0,0.5l0,0.5l0,0.5l0,0l0,0.5l-0.1,0.5
		l-0.1,0.5l-0.1,0.4l-0.1,0.5l-0.1,0.4l0,0l-0.1,0.4l-0.2,0.4l-0.2,0.4l-0.2,0.4l-0.2,0.4l-0.3,0.4l-0.3,0.4l-0.3,0.3l-0.4,0.4
		l-0.3,0.3l-0.2,0.2l-1.8,0.2l0,0l-1.9,0.2h0l-1.9,0.2h0l-1.9,0.2h0l-1.9,0.3h0l-1.8,0.3l0,0l-1.8,0.3h0l-1.6,0.3l-0.4-0.1l-0.5-0.2
		l-0.5-0.2l-0.5-0.2l-0.4-0.2l-0.5-0.3l0,0L111,103l-0.4-0.3l-0.4-0.3l0,0l-0.3-0.3l-0.3-0.3l-0.3-0.4l-0.2-0.3l-0.2-0.4l-0.2-0.4
		l-0.2-0.3l0,0l-0.2-0.4h0l-0.1-0.4l-0.1-0.4l0,0l-0.1-0.4l-0.1-0.4l-0.1-0.4l-0.1-0.4l-0.1-0.4l-0.1-0.4l-0.1-0.4l0-0.4l0,0l0-0.4
		l0-0.4l0-0.3v-0.3l0-0.3v-9.8L107.4,83.8L107.4,83.8z"/>
	<path class="st2" d="M111.1,103.8l0.5,0.3l0.5,0.3l0.5,0.3l0.5,0.2l0.6,0.2l0.6,0.2l1.8-0.3l1.8-0.3l1.8-0.3l1.9-0.3l1.9-0.2
		l1.9-0.2l1.9-0.2l1.9-0.2l0.4-0.3l0.3-0.3l0.4-0.4l0.3-0.4l0.3-0.4l0.3-0.4l0.2-0.4l0.2-0.4l0.2-0.4l0.2-0.4l0.1-0.4l0.1-0.5
		l0.1-0.5l0.1-0.5l0.1-0.5l0.1-0.5l0.1-0.5l0-0.5l0-0.5l0-0.5l0-0.6l0-0.6v-0.6v-9v-0.2l0-0.2v-0.2l0-0.3l0-0.3l0-0.3l0-0.3
		l-0.1-0.3l-0.1-0.3l-0.1-0.3l-0.1-0.3l-0.1-0.3l-0.1-0.3l-0.2-0.3l-0.2-0.3l-0.2-0.3l-0.2-0.2l-0.2-0.2l-0.2-0.2l-0.2-0.2l-0.2-0.1
		l-0.2-0.1l-0.2-0.1l-0.2-0.1l-0.2-0.1l-0.2,0l-0.2,0l-0.2,0l-0.2,0h-0.2l-0.4,0l-0.4,0l-0.4,0.1l-0.3,0.1l-0.3,0.1l-0.3,0.1
		l-0.3,0.2l-0.3,0.2l-0.2,0.2l-0.2,0.2l-0.2,0.2l-0.2,0.3l-0.2,0.3l-0.2,0.3l-0.1,0.3l-0.1,0.3l-0.1,0.3l-0.1,0.3l-0.1,0.3l0,0.3
		l0,0.3l0,0.3l0,0.3l0,0.3l0,0.3l0,10.1V94v0.3l0,0.3v0.3l0,0.2l0,0.2l0,0.2l0,0.2l0,0.2l0,0.2l0,0.1l0,0.1l0,0.1l0,0.1l0,0.1l0,0.1
		l0,0.1l-0.1,0.1l-0.1,0.1l-0.1,0.1l-0.1,0.1l-0.1,0.1l-0.1,0.1l-0.1,0.1l-0.1,0.1l-0.1,0.1l-0.1,0.1l-0.2,0.1l-0.2,0.1l-0.2,0.1
		l-0.2,0.1l-0.2,0.1l-0.3,0.1l-0.3,0.1l-0.3,0l-0.3,0l-0.4,0l-0.4,0l-0.4,0l-0.4-0.1l-0.4-0.1l-0.3-0.1l-0.3-0.1l-0.3-0.2l-0.3-0.2
		l-0.2-0.2l-0.2-0.2l-0.2-0.2l-0.2-0.3l-0.1-0.3l-0.1-0.3l-0.1-0.3l-0.1-0.3l0-0.3l0-0.3l0-0.3v-0.3V83.8v-0.4l0-0.3l0-0.3l0-0.3
		l0-0.3l-0.1-0.3l-0.1-0.3l-0.1-0.3l-0.1-0.3l-0.1-0.3l-0.1-0.3l-0.2-0.3l-0.2-0.3l-0.2-0.3l-0.2-0.3l-0.3-0.3l-0.2-0.2l-0.3-0.2
		l-0.3-0.2l-0.3-0.1l-0.3-0.1l-0.3-0.1l-0.4-0.1l-0.4,0l-0.4,0h-0.2l-0.2,0l-0.2,0l-0.3,0l-0.3,0l-0.3,0.1l-0.3,0.1l-0.3,0.1
		l-0.3,0.1l-0.2,0.2l-0.2,0.2l-0.2,0.2l-0.2,0.2l-0.2,0.3l-0.2,0.3l-0.2,0.3l-0.1,0.3l-0.1,0.3l-0.1,0.3l-0.1,0.3l-0.1,0.3l-0.1,0.3
		l0,0.3l0,0.3l0,0.3l0,0.3v0.3l0,0.3v0.3v9.9l0,0.3v0.4l0,0.4l0,0.4l0,0.4l0,0.4l0,0.4l0.1,0.4l0.1,0.4l0.1,0.4l0.1,0.4l0.1,0.4
		l0.1,0.4l0.1,0.4l0.2,0.4l0.2,0.4l0.2,0.4l0.2,0.4l0.2,0.4l0.3,0.4l0.3,0.4l0.3,0.4l0.4,0.3l0.4,0.3l0.4,0.3L111.1,103.8z"/>
	<path class="st1" d="M78.1,92.3L78.1,92.3l0-0.7l0-0.7l0.1-0.6l0.1-0.6l0.1-0.6l0.1-0.6l0.1-0.5l0.1-0.6l0,0l0.1-0.5l0.2-0.5
		l0.2-0.4l0.2-0.5l0.2-0.4l0.2-0.4l0.2-0.4l0.2-0.4l0,0l0.2-0.3l0.2-0.3l0.2-0.3l0.2-0.3l0.2-0.3l0,0l0.2-0.3l0.3-0.3v0l0.3-0.3
		l0.3-0.2l0.3-0.3l0.4-0.3l0.4-0.3l0.4-0.2l0.4-0.2l0.4-0.2l0.4-0.2l0.5-0.2l0.5-0.2l0.5-0.2l0.6-0.2l0.5-0.2l0.6-0.2l0.6-0.1
		l0.6-0.1l0.6-0.1l0.7-0.1l0.7,0l0.7,0l0.7,0l0.7,0l0.7,0.1l0.7,0.1l0.6,0.1l0.6,0.1l0.6,0.2l0.6,0.2l0.6,0.2l0.5,0.2l0.5,0.2
		l0.5,0.2l0.5,0.2l0.4,0.3l0.4,0.3l0.4,0.3l0.3,0.3l0.3,0.3l0.3,0.3l0.2,0.3l0.3,0.4l0.2,0.3l0.2,0.3l0.1,0.3l0.1,0.3l0.1,0.4
		l0.1,0.3l0.1,0.4l0,0.4l0,0.3l0,0.3l-0.1,0.3l-0.1,0.3l-0.1,0.3l-0.1,0.2l-0.2,0.3l-0.1,0.2l-0.1,0.2l-0.2,0.2l-0.2,0.2l-0.2,0.2
		l-0.3,0.2l-0.2,0.1l-0.3,0.1l-0.3,0.1l-0.3,0.1l-0.4,0.1l-0.3,0l-0.4,0l-0.3,0l-0.3,0L99,89L98.7,89l-0.2-0.1l-0.2-0.1l-0.2-0.1h0
		L98,88.6l-0.2-0.1l0,0l-0.1-0.1l-0.1-0.2v0l-0.1-0.1l-0.1-0.1L97.4,88l0,0l-0.1-0.1l0-0.1l0,0l-0.2-0.3l0,0L97,87.2l-0.1-0.3v0
		l-0.2-0.3c0,0,0,0,0,0l-0.2-0.3l0,0v0l0-0.1v0L96.3,86c0,0,0,0,0,0l-0.1-0.1c0,0,0,0,0,0l-0.1-0.1l0,0L96,85.6c0,0,0,0,0,0
		l-0.1-0.1c0,0,0,0,0,0l-0.1-0.1c0,0,0,0,0,0l-0.1-0.1c0,0,0,0,0,0L95.4,85c0,0,0,0,0,0l-0.2-0.1c0,0,0,0,0,0L95,84.7c0,0,0,0-0.1,0
		l-0.2-0.1c0,0,0,0,0,0l-0.2-0.1c0,0,0,0,0,0l-0.2-0.1c0,0,0,0,0,0l-0.3-0.1c0,0,0,0,0,0l-0.3-0.1c0,0,0,0,0,0l-0.3-0.1c0,0,0,0,0,0
		l-0.4,0c0,0,0,0,0,0l-0.4,0c0,0,0,0,0,0l-0.4,0c0,0,0,0,0,0l-0.4,0c0,0,0,0-0.1,0l-0.4,0.1c0,0,0,0-0.1,0l-0.3,0.1c0,0,0,0,0,0
		l-0.3,0.1c0,0,0,0,0,0L90,84.5c0,0,0,0-0.1,0l-0.3,0.1c0,0,0,0,0,0l-0.3,0.2c0,0,0,0,0,0L89,85c0,0,0,0,0,0l-0.2,0.2c0,0,0,0,0,0
		l-0.2,0.2c0,0,0,0,0,0l-0.2,0.2c0,0,0,0,0,0L88.1,86c0,0,0,0,0,0l-0.2,0.2c0,0,0,0,0,0l-0.1,0.3c0,0,0,0,0,0l-0.1,0.3l0,0l-0.1,0.3
		c0,0,0,0,0,0l-0.1,0.3c0,0,0,0,0,0l-0.1,0.3v0l-0.1,0.3c0,0,0,0,0,0L87,88.4v0L87,88.7c0,0,0,0,0,0l-0.1,0.3v0l-0.1,0.3v0l0,0.3
		c0,0,0,0,0,0l0,0.3v0l0,0.3v0l0,0.3c0,0,0,0,0,0l0,0.3l0,0.3v0l0,0.3v0V92v0.2c0,0,0,0,0,0l0,0.2l0,0.3v0l0,0.3l0,0l0,0.3l0,0
		l0,0.3v0l0,0.3v0l0.1,0.3v0l0.1,0.3v0L87,95v0l0.1,0.3l0,0l0.1,0.3c0,0,0,0,0,0l0.1,0.3c0,0,0,0,0,0l0.1,0.3c0,0,0,0,0,0l0.1,0.3
		c0,0,0,0,0,0l0.2,0.3c0,0,0,0,0,0l0.2,0.3c0,0,0,0,0,0l0.2,0.3c0,0,0,0,0,0l0.2,0.2c0,0,0,0,0,0l0.2,0.2c0,0,0,0,0,0l0.2,0.2
		c0,0,0,0,0,0l0.2,0.2c0,0,0,0,0,0l0.2,0.2c0,0,0,0,0,0l0.2,0.1c0,0,0,0,0,0l0.2,0.1c0,0,0,0,0,0l0.2,0.1c0,0,0,0,0.1,0l0.2,0.1
		c0,0,0,0,0,0l0.2,0.1c0,0,0,0,0,0l0.2,0.1c0,0,0,0,0,0l0.2,0h0l0.2,0c0,0,0,0,0,0l0.2,0h0h0.2h0l0.4,0c0,0,0,0,0.1,0l0.4,0h0l0.3,0
		c0,0,0,0,0.1,0l0.3-0.1c0,0,0,0,0,0l0.3-0.1c0,0,0,0,0,0l0.3-0.1c0,0,0,0,0,0l0.2-0.1c0,0,0,0,0,0l0.2-0.1c0,0,0,0,0,0l0.2-0.1
		c0,0,0,0,0,0l0.2-0.1c0,0,0,0,0,0l0.2-0.2c0,0,0,0,0,0l0.2-0.2l0,0l0.2-0.2c0,0,0,0,0,0l0.1-0.2l0,0l0.1-0.2c0,0,0,0,0,0l0.1-0.2h0
		l0.1-0.2c0,0,0,0,0,0l0.1-0.2v0l0.1-0.2l0,0l0.1-0.3l0,0l0.1-0.3l0.1-0.3l0.1-0.2l0.2-0.3l0.2-0.3l0.2-0.2l0.2-0.2l0.2-0.2l0.2-0.2
		l0.2-0.1l0.3-0.1l0.3-0.1l0.3-0.1l0.3,0l0.3,0l0.3,0l0.3,0l0.3,0l0.3,0.1l0.2,0.1l0.2,0.1l0.2,0.1l0.3,0.2l0.2,0.2l0.2,0.2l0.2,0.2
		l0.2,0.2l0.2,0.3l0.1,0.3l0.1,0.2l0.1,0.3l0.1,0.3l0.1,0.3l0,0.3l0,0.4l0,0.4l0,0.3l-0.1,0.4l-0.1,0.4l-0.1,0.3l-0.1,0.3l-0.2,0.4
		l-0.2,0.3l-0.2,0.4l-0.2,0.3l-0.2,0.3l-0.3,0.3l-0.3,0.3l-0.3,0.3l-0.3,0.3l-0.4,0.3l-0.4,0.3l-0.4,0.3l-0.4,0.2l-0.5,0.2l-0.5,0.2
		l-0.5,0.2l-0.5,0.2l-0.6,0.2l-0.6,0.2l-0.6,0.1l-0.6,0.1l-0.6,0.1l-0.7,0.1l-0.7,0.1l-0.7,0l-0.7,0h-0.5l-0.6,0l-0.6,0l-0.5-0.1
		l-0.6-0.1l-0.5-0.1l0,0l-0.6-0.1l-0.5-0.1l-0.5-0.1l-0.5-0.2h0l-0.5-0.2l-0.5-0.2h0l-0.5-0.2l-0.5-0.2l-0.5-0.3l-0.4-0.3l-0.5-0.3
		l-0.5-0.4l-0.5-0.4h0l-0.4-0.4l-0.4-0.4l-0.4-0.4l-0.3-0.4h0l-0.3-0.4l-0.3-0.4l-0.2-0.4l0,0l-0.2-0.4l-0.2-0.4l-0.2-0.4l-0.2-0.4
		h0L79,97.6h0l-0.1-0.4h0l-0.1-0.4l0,0l-0.1-0.4v0L78.5,96l-0.1-0.4l-0.1-0.4l-0.1-0.4l-0.1-0.4h0l0-0.3l0,0l0-0.4l0-0.3l0-0.3
		l0-0.3l0-0.3L78.1,92.3L78.1,92.3z"/>
	<path class="st2" d="M81.9,102.9l0.5,0.4l0.5,0.4l0.5,0.3l0.5,0.3l0.5,0.3l0.5,0.3l0.5,0.2l0.5,0.2l0.5,0.2l0.5,0.2l0.5,0.1
		l0.5,0.1l0.6,0.1l0.6,0.1l0.6,0.1l0.6,0.1l0.6,0l0.6,0H92l0.8,0l0.7,0l0.7-0.1l0.7-0.1l0.7-0.1l0.6-0.1l0.6-0.2l0.6-0.2l0.6-0.2
		l0.5-0.2l0.5-0.2l0.5-0.2l0.5-0.3l0.4-0.3l0.4-0.3l0.4-0.3l0.4-0.3l0.4-0.3l0.3-0.3l0.3-0.3l0.3-0.3l0.3-0.4l0.2-0.4l0.2-0.4
		l0.2-0.4l0.2-0.4l0.1-0.4l0.1-0.4l0.1-0.4l0.1-0.4l0-0.4l0-0.4l0-0.4l0-0.4l-0.1-0.4l-0.1-0.4l-0.1-0.3l-0.1-0.3l-0.2-0.3l-0.2-0.3
		l-0.2-0.2l-0.2-0.2l-0.2-0.2l-0.3-0.2l-0.3-0.2l-0.3-0.1l-0.3-0.1l-0.3-0.1l-0.3-0.1l-0.4,0l-0.4,0l-0.3,0l-0.3,0l-0.3,0.1
		l-0.3,0.1l-0.3,0.1l-0.3,0.1L98.3,94L98,94.2l-0.3,0.2l-0.3,0.2l-0.2,0.3L97,95.2l-0.2,0.3l-0.2,0.3L96.5,96l-0.1,0.3l-0.1,0.3
		l-0.1,0.2L96,97l-0.1,0.2l-0.1,0.2l-0.1,0.2l-0.1,0.2L95.3,98l-0.2,0.2l-0.2,0.2l-0.2,0.2l-0.2,0.1l-0.2,0.1L94,98.8l-0.3,0.1
		L93.5,99l-0.3,0.1l-0.3,0.1l-0.4,0l-0.4,0l-0.3,0l-0.2,0l-0.2,0l-0.2,0l-0.2,0L90.6,99l-0.2-0.1l-0.2-0.1l-0.2-0.1l-0.2-0.1
		l-0.2-0.2l-0.2-0.2L89,98l-0.2-0.2l-0.2-0.2l-0.2-0.3L88.2,97l-0.2-0.3l-0.1-0.3L87.8,96l-0.1-0.3l-0.1-0.3l-0.1-0.4l-0.1-0.3
		l-0.1-0.3l0-0.3l0-0.3l0-0.3l0-0.3l0-0.3l0-0.3l0-0.2V92v-0.3l0-0.3l0-0.3l0-0.3l0-0.3l0-0.3l0-0.3l0-0.3l0.1-0.3l0.1-0.3l0.1-0.3
		l0.1-0.3l0.1-0.3l0.1-0.3l0.1-0.3l0.1-0.3l0.1-0.3l0.1-0.3l0.2-0.2l0.2-0.2l0.2-0.2l0.2-0.2l0.2-0.2l0.2-0.2l0.3-0.2l0.3-0.1
		l0.3-0.1l0.3-0.1l0.3-0.1l0.4-0.1l0.4,0l0.4,0l0.4,0l0.4,0l0.3,0.1l0.3,0.1l0.3,0.1l0.2,0.1l0.2,0.1l0.2,0.1l0.2,0.1l0.2,0.1
		l0.2,0.1l0.1,0.1l0.1,0.1l0.1,0.1l0.1,0.1l0.1,0.1l0.1,0.1l0.1,0.1l0.1,0.1l0,0.1l0.2,0.3l0.2,0.3l0.2,0.3l0.2,0.3l0.2,0.3l0,0.1
		l0.1,0.1l0.1,0.1l0.1,0.1l0.1,0.1l0.1,0.1l0.1,0.1l0.2,0.1l0.2,0.1l0.2,0.1l0.2,0.1l0.2,0.1l0.2,0.1l0.3,0.1l0.3,0.1l0.3,0l0.3,0
		l0.4,0l0.4,0l0.4-0.1l0.4-0.1l0.3-0.1l0.3-0.1l0.3-0.2l0.3-0.2l0.3-0.2l0.2-0.2l0.2-0.2l0.2-0.3l0.2-0.3l0.2-0.3l0.1-0.3l0.1-0.3
		l0.1-0.3l0.1-0.3l0-0.3l0-0.4l0-0.4l-0.1-0.4l-0.1-0.4l-0.1-0.4l-0.1-0.4l-0.2-0.4l-0.2-0.4l-0.2-0.4l-0.3-0.4l-0.3-0.4l-0.3-0.3
		l-0.4-0.3l-0.4-0.3l-0.4-0.3l-0.4-0.3l-0.5-0.3l-0.5-0.3L99.3,79l-0.5-0.2l-0.6-0.2l-0.6-0.2L97,78.2L96.3,78l-0.6-0.1L95,77.8
		l-0.7-0.1l-0.7-0.1l-0.7,0l-0.8,0l-0.7,0l-0.7,0L90,77.7l-0.7,0.1l-0.6,0.1L88.1,78l-0.6,0.2l-0.6,0.2l-0.6,0.2l-0.5,0.2l-0.5,0.2
		l-0.5,0.2l-0.5,0.2l-0.5,0.2l-0.4,0.3L83,80.2l-0.4,0.3l-0.4,0.3L81.9,81l-0.3,0.3l-0.3,0.3L81,81.9l-0.3,0.3l-0.2,0.3l-0.2,0.3
		L80.1,83l-0.2,0.3l-0.2,0.3L79.4,84l-0.2,0.4L79,84.8l-0.2,0.4l-0.2,0.5l-0.2,0.5l-0.2,0.5l-0.1,0.5L78,87.8l-0.1,0.6l-0.1,0.6
		l-0.1,0.6l-0.1,0.6l-0.1,0.7l0,0.7l0,0.7v0.3v0.3l0,0.3l0,0.3l0,0.3l0,0.4l0,0.4l0.1,0.4l0.1,0.4l0.1,0.4l0.1,0.4l0.1,0.4l0.1,0.4
		l0.1,0.4l0.1,0.4l0.2,0.4l0.2,0.4l0.2,0.4l0.2,0.4l0.2,0.4l0.3,0.4l0.3,0.4l0.3,0.4l0.4,0.4l0.4,0.4l0.4,0.4L81.9,102.9z"/>
	<path class="st1" d="M4.3,113l0-0.4l0.1-0.3l0.1-0.3l0.1-0.4l0.1-0.3l0.2-0.4l0.2-0.3l0.2-0.3l0.2-0.3l0.3-0.3l0.3-0.3l0.3-0.2
		l0.3-0.2l0.4-0.2l0.3-0.2l0.3-0.1l0.3-0.1l0.4-0.1l0.3-0.1l0.4,0h0.3l0.4,0l0.4,0.1l0.3,0.1l0.4,0.1l0.3,0.1l0.4,0.2l0,0l0.1,0.1
		l0,0l0.2,0.1l0,0l0.9,0.5h0l0.9,0.5l0,0l0.9,0.5l0,0l0.9,0.4h0l1,0.4l0,0l1,0.4h0l1,0.4h0l1,0.3h0l1,0.3h0l1,0.3h0l1,0.3h0l1.4,0.4
		h0l1.4,0.4h0l1.4,0.3h0l1.4,0.3h0l1.4,0.3h0l1.4,0.3h0l1.4,0.2h0l1.4,0.2h0L36,116h0l1.9,0.2h0l1.9,0.2h0l1.9,0.2h0l1.9,0.1h0
		l1.9,0.1h0l1.9,0.1h0l1.9,0.1h0l1.9,0h0l1.9,0h0l1.9,0l0,0l1.9,0h0l2.3-0.1h0l2.3-0.1h0l2.3-0.1h0l2.3-0.2h0l2.3-0.2h0l2.3-0.2h0
		l2.3-0.2h0l2.3-0.3h0l2.3-0.3h0l2.3-0.3h0l2.5-0.4h0l2.5-0.4l0,0l2.5-0.5h0l2.5-0.5h0l2.5-0.5h0l2.5-0.6h0l2.5-0.6h0l2.5-0.6h0
		l2.5-0.7l0,0l1.9-0.5l1.9-0.5l1.9-0.5l1.9-0.4l1.9-0.4l1.9-0.4l1.9-0.3l1.9-0.3l1.9-0.3l1.9-0.3l1.9-0.2l1.9-0.2l2.5-0.3l2.6-0.2
		l2.6-0.2l2.6-0.2l2.6-0.1l2.6-0.1l2.6-0.1l2.6,0l2.6,0l2.6,0l2.6,0l2.6,0.1l2.6,0.1l2.6,0.1l2.6,0.2l2.6,0.2l2.6,0.2l2.6,0.3
		l1.9,0.2l1.9,0.2l1.9,0.2l1.9,0.3l1.9,0.3l1.9,0.3l1.9,0.4l1.9,0.4l1.9,0.4l1.9,0.4l1.9,0.5l1.8,0.5l0,0l0,0l0,0l0,0l0,0v0v0l0,0v0
		l0,0l0,0l0,0l0,0l0,0h0h0h0l0,0l-1.9-0.4h0l-1.9-0.4h0l-1.9-0.3h0l-1.9-0.3h0l-1.9-0.3l0,0l-1.9-0.2h0l-1.9-0.2h0L179,108l0,0
		l-1.9-0.2h0l-1.9-0.2h0l-1.9-0.1h0l-1.9-0.1l0,0l-2.5-0.1h0l-2.5-0.1h0l-2.5-0.1h0l-2.5,0l0,0l-2.5,0h0l-2.5,0h0l-2.5,0.1l0,0
		l-2.5,0.1h0l-2.5,0.1l0,0l-2.5,0.2l0,0l-2.5,0.2h0l-2.5,0.2l0,0l-2.5,0.2h0l-2.5,0.3h0l-2.5,0.3h0l-2.5,0.3h0l-2.5,0.4h0l-2.5,0.4
		h0l-2.2,0.4h0l-2.2,0.4h0l-2.2,0.4h0l-2.2,0.5l0,0l-2.2,0.5h0l-1.8,0.4l0,0l-1.7,0.5h0l-1.8,0.5h0l-1.3,0.4l0,0l-1.3,0.4h0
		l-2.7,0.9l-2.5,0.8l-2.5,0.8l-2.6,0.8l-2.6,0.7l-2.6,0.7l-2.6,0.6l-2.6,0.6l-2.6,0.6l-2.6,0.5l-2.4,0.5l-2.4,0.4l-2.4,0.4l-2.4,0.4
		l-2.4,0.3l-2.4,0.3l-2.4,0.3l-2.4,0.2l-2.4,0.2l-2.4,0.2l-1.9,0.1l-1.9,0.1l-1.9,0.1l-1.9,0.1l-1.9,0l-1.9,0l-1.9,0l-1.9,0
		l-1.9-0.1l-1.9-0.1l-1.9-0.1l-1.9-0.1l-1.9-0.2l-1.4-0.1l-1.4-0.2l-1.4-0.2l-1.4-0.2l-1.4-0.2l-1.4-0.2l-1.4-0.3l-1.4-0.3l-1.4-0.3
		l-1.3-0.3l-1.3-0.4l-1.3-0.4l-1.3-0.4l-1.3-0.4l-0.9-0.3l-0.9-0.4l-0.9-0.4l-0.9-0.4l-0.9-0.4L7.9,118l-1-0.5l-0.3-0.2l-0.3-0.2
		L6,116.9l-0.3-0.3l-0.2-0.2L5.2,116L5,115.7l0,0l-0.2-0.3l-0.1-0.3l-0.1-0.3v0l-0.1-0.3L4.4,114l-0.1-0.3l0-0.4L4.3,113L4.3,113z"
		/>
	<path class="st2" d="M194,111l-1.9-0.4l-1.9-0.4l-1.9-0.3l-1.9-0.3l-1.9-0.3l-1.9-0.2l-1.9-0.2l-1.9-0.2l-1.9-0.2l-1.9-0.2
		l-1.9-0.1l-1.9-0.1l-2.5-0.1l-2.5-0.1l-2.5-0.1l-2.5,0l-2.5,0l-2.5,0l-2.5,0.1l-2.5,0.1l-2.5,0.1l-2.5,0.2l-2.5,0.2l-2.5,0.2
		l-2.5,0.2l-2.5,0.3l-2.5,0.3l-2.5,0.3l-2.5,0.4l-2.5,0.4l-2.2,0.4l-2.2,0.4l-2.2,0.4l-2.2,0.5l-2.2,0.5l-1.8,0.4l-1.8,0.5l-1.8,0.5
		l-1.3,0.4l-1.3,0.4l-2.7,0.9l-2.5,0.8l-2.6,0.8l-2.6,0.8l-2.6,0.7l-2.6,0.7l-2.6,0.6l-2.6,0.6l-2.6,0.6l-2.6,0.5l-2.4,0.5l-2.4,0.4
		l-2.4,0.4l-2.4,0.4l-2.4,0.3l-2.4,0.3l-2.4,0.3l-2.4,0.2l-2.4,0.2l-2.4,0.2l-1.9,0.1l-1.9,0.1l-1.9,0.1l-1.9,0.1l-1.9,0l-1.9,0
		l-1.9,0l-1.9,0l-1.9-0.1l-1.9-0.1l-1.9-0.1l-1.9-0.1l-1.9-0.2l-1.4-0.1l-1.4-0.2l-1.4-0.2l-1.4-0.2l-1.4-0.2l-1.4-0.2l-1.4-0.3
		l-1.4-0.3l-1.4-0.3l-1.3-0.3l-1.3-0.4l-1.3-0.4l-1.3-0.4l-1.3-0.4l-0.9-0.4l-0.9-0.4l-1-0.4l-1-0.4l-1-0.4l-1-0.5l-1-0.5l-0.4-0.2
		l-0.3-0.2l-0.3-0.3L5.2,117L5,116.7l-0.2-0.3l-0.2-0.3l-0.2-0.4l-0.2-0.4L4,115l-0.1-0.4l-0.1-0.4l-0.1-0.4l0-0.4v-0.4l0-0.4
		l0.1-0.4l0.1-0.4l0.1-0.4l0.2-0.4l0.2-0.4l0.2-0.4l0.2-0.3l0.3-0.3l0.3-0.3l0.3-0.3l0.3-0.3l0.3-0.2l0.4-0.2l0.4-0.2l0.4-0.2
		l0.4-0.1l0.4-0.1l0.4-0.1l0.4,0h0.4l0.4,0l0.4,0.1l0.4,0.1l0.4,0.1l0.4,0.2l0.4,0.2l0.2,0.1l0.2,0.1l0.9,0.5l0.9,0.5l0.9,0.5
		l0.9,0.4l1,0.4l1,0.4l1,0.4l1,0.3l1,0.3l1,0.3l1,0.3l1.4,0.4l1.4,0.4l1.4,0.3l1.4,0.3l1.4,0.3l1.4,0.3l1.4,0.2l1.4,0.2l1.9,0.3
		l1.9,0.2l1.9,0.2l1.9,0.2l1.9,0.1l1.9,0.1l1.9,0.1l1.9,0.1l1.9,0l1.9,0l1.9,0l1.9,0l2.3-0.1l2.3-0.1l2.3-0.1l2.3-0.2l2.3-0.2
		l2.3-0.2l2.3-0.2l2.3-0.3l2.3-0.3l2.3-0.3l2.5-0.4l2.5-0.4l2.5-0.5l2.5-0.5l2.5-0.5l2.5-0.6l2.5-0.6l2.5-0.6l2.5-0.7l1.9-0.5
		l1.9-0.5l1.9-0.4l1.9-0.4l1.9-0.4l1.9-0.4l1.9-0.3l1.9-0.3l1.9-0.3l1.9-0.3l1.9-0.2l1.9-0.2l2.6-0.3l2.6-0.2l2.6-0.2l2.6-0.2
		l2.6-0.1l2.6-0.1l2.6-0.1l2.6-0.1l2.6,0l2.6,0l2.6,0l2.6,0.1l2.6,0.1l2.6,0.1l2.6,0.2l2.6,0.2l2.6,0.2l2.6,0.3l1.9,0.2l1.9,0.2
		l1.9,0.3l1.9,0.3l1.9,0.3l1.9,0.3l1.9,0.3l1.9,0.4l1.9,0.4l1.9,0.4l1.9,0.5l1.9,0.5l0.1,0.1l0.1,0.1l0.1,0.1l0.1,0.1l0.1,0.1l0,0.1
		l0,0.2l0,0.2l0,0.1l-0.1,0.1l-0.1,0.1l-0.1,0.1l-0.1,0.1l-0.1,0l-0.1,0L194,111L194,111z"/>
</g>
<g>
	<path class="st0" d="M14,73.3l0-0.1v0l0-0.1l0-0.2l0,0l0-0.2l0-0.2l0,0l0-0.2h0l0-0.2l0-0.2l0-0.2l0.1-0.2h0l0.1-0.2l0.1-0.2
		l0.1-0.2l0.1-0.2l0.1-0.1l0.1-0.2l0.1-0.1l0.2-0.2h0l0.1-0.1l0.2-0.1l0.2-0.1l0.2-0.1l0.2-0.1l0.2-0.1l0.2-0.1l0.3-0.1l0.3-0.1
		l0.4-0.1l0.3-0.1l0.4,0l0.4,0l0.4,0h17.4l0.4,0l0,0l0.4,0l0.4,0l0.4,0l0,0l0.3,0l0.4,0.1l0.4,0.1l0.3,0.1l0.3,0.1l0.3,0.1l0.2,0.1
		l0.3,0.2l0.2,0.2l0.2,0.2l0.2,0.2l0.2,0.2l0.1,0.2l0.1,0.3l0.1,0.3l0.1,0.2l0.1,0.3l0,0.3l0,0.3v0.1l0,0.2l0,0.2l0,0.2l0,0.2
		l-0.1,0.2L41.4,74l-0.1,0.2l-0.1,0.2l-0.1,0.2L41,74.8L40.8,75l-0.2,0.1l-0.2,0.2l-0.2,0.1l-0.3,0.2l-0.2,0.1l-0.3,0.1L39,75.8
		l-0.3,0.1l-0.3,0l-0.4,0l-0.4,0l-0.4,0l-0.5,0l-0.5,0H25.7l-0.3,0c0,0-0.1,0-0.1,0l-0.2,0.1c0,0-0.1,0-0.1,0l-0.2,0.1
		c0,0,0,0-0.1,0l-0.2,0.1c0,0-0.1,0-0.1,0l-0.2,0.1c0,0,0,0-0.1,0L24,76.7c0,0,0,0-0.1,0.1L23.8,77c0,0,0,0-0.1,0.1l-0.1,0.2
		c0,0,0,0,0,0.1l-0.1,0.2c0,0,0,0.1,0,0.1l-0.1,0.2c0,0,0,0,0,0.1l-0.1,0.2c0,0,0,0.1,0,0.1l0,0.2c0,0,0,0,0,0v3c0,0,0,0,0,0l0,0.2
		c0,0,0,0.1,0,0.1l0.1,0.2c0,0,0,0.1,0,0.1l0.1,0.2c0,0,0,0.1,0,0.1l0.1,0.2c0,0,0,0,0,0.1l0.1,0.2c0,0,0,0,0.1,0.1l0.2,0.2
		c0,0,0,0,0.1,0.1l0.2,0.2c0,0,0,0,0.1,0l0.2,0.1c0,0,0,0,0.1,0l0.2,0.1c0,0,0.1,0,0.1,0l0.2,0.1c0,0,0,0,0.1,0l0.2,0.1
		c0,0,0.1,0,0.1,0l0.2,0h8.5l0.3,0l0.3,0l0,0l0.3,0l0.3,0l0.2,0l0.3,0.1l0.2,0.1l0.2,0.1l0.3,0.1l0.2,0.1l0.2,0.2l0.2,0.2l0.2,0.2
		l0.2,0.2l0.2,0.2l0.2,0.2l0.1,0.2l0.1,0.3l0.1,0.2l0.1,0.2l0,0.3l0,0.3l0,0.3l0,0.2L38.4,88l-0.1,0.2l-0.1,0.2l-0.1,0.2L38,88.8
		l-0.2,0.3l0,0l-0.2,0.2l-0.2,0.2l-0.2,0.2l-0.2,0.1l-0.2,0.2l-0.2,0.1l-0.2,0.1l-0.2,0.1l-0.2,0.1l-0.2,0.1l-0.2,0.1l-0.2,0.1
		l-0.2,0l-0.2,0l-0.2,0l-0.2,0l-0.2,0l-0.2,0h0l-0.2,0h-8.5l-0.3,0c0,0-0.1,0-0.1,0l-0.2,0.1c0,0-0.1,0-0.1,0l-0.2,0.1
		c0,0-0.1,0-0.1,0l-0.2,0.1c0,0,0,0-0.1,0l-0.2,0.1c0,0,0,0-0.1,0L24,91.3c0,0,0,0-0.1,0.1l-0.2,0.2c0,0,0,0-0.1,0.1l-0.1,0.2
		c0,0,0,0,0,0.1l-0.1,0.2c0,0,0,0.1,0,0.1l-0.1,0.2c0,0,0,0,0,0.1l-0.1,0.2c0,0,0,0.1,0,0.1l0,0.2c0,0,0,0,0,0v2.5c0,0,0,0,0,0
		l0,0.2c0,0,0,0.1,0,0.1l0.1,0.2c0,0,0,0.1,0,0.1l0.1,0.2c0,0,0,0.1,0,0.1l0.1,0.2c0,0,0,0,0,0.1l0.1,0.2c0,0,0,0,0.1,0.1l0.2,0.2
		c0,0,0,0,0.1,0.1l0.2,0.2c0,0,0,0,0.1,0l0.2,0.1c0,0,0,0,0.1,0l0.2,0.1c0,0,0.1,0,0.1,0l0.2,0.1c0,0,0,0,0.1,0l0.2,0.1
		c0,0,0.1,0,0.1,0l0.2,0h11.6l0.2,0l0.3,0l0,0l0.3,0l0.3,0l0.3,0l0.3,0.1v0l0.2,0.1l0.3,0.1l0.2,0.1l0.3,0.1l0.2,0.1l0.2,0.2
		l0.2,0.2l0.2,0.2l0.2,0.2l0.1,0.2l0.1,0.3l0.1,0.2l0.1,0.3l0.1,0.3l0,0.3l0,0.2l0,0.3l0,0.3l0,0.3l-0.1,0.3l-0.1,0.2l-0.1,0.2
		l-0.1,0.2l-0.1,0.2l-0.1,0.2l-0.1,0.2l-0.1,0.1l-0.1,0.1l-0.1,0.1l-0.2,0.2l-0.2,0.2l-0.3,0.2l-0.2,0.1l-0.3,0.1l-0.3,0.1l-0.4,0.1
		l-0.3,0.1l-0.4,0.1l0,0l-0.3,0l0,0l-0.4,0l-0.4,0l-0.4,0l-0.4,0l-0.4,0H18.7l-0.2,0l-0.3,0l-0.3,0l0,0l-0.2,0l-0.3,0l-0.3,0
		l-0.2-0.1l-0.3-0.1l-0.2-0.1l-0.3-0.1h0l-0.2-0.1l-0.2-0.1l-0.2-0.1l-0.2-0.2l-0.2-0.2l-0.2-0.2l-0.2-0.2l-0.1-0.2l0,0l-0.1-0.2
		l-0.1-0.3l0,0l-0.1-0.2l-0.1-0.3l-0.1-0.3v0l0-0.3l0-0.3l0,0l0-0.4l0-0.3l0-0.4l0-0.4V73.4V73.3z"/>
	<path class="st3" d="M40.9,98.3l-0.3-0.2L40.3,98L40,97.8l-0.3-0.1l-0.3-0.1L39,97.5l-0.3-0.1l-0.3,0l-0.3,0l-0.3,0l-0.3,0l-0.3,0
		H25.7l-0.2,0l-0.2-0.1L25,97.2l-0.2-0.1L24.6,97l-0.2-0.2l-0.2-0.2l-0.1-0.2L24,96.2L23.9,96l-0.1-0.2l0-0.2V93l0-0.2l0.1-0.2
		l0.1-0.2l0.1-0.2l0.1-0.2l0.2-0.2l0.2-0.2l0.2-0.1l0.2-0.1l0.2-0.1l0.2-0.1l0.2,0h8.5l0.2,0l0.2,0l0.2,0l0.2,0l0.2,0l0.2,0l0.2,0
		l0.2-0.1l0.2-0.1l0.2-0.1l0.2-0.1l0.2-0.1l0.2-0.1l0.2-0.1l0.2-0.2l0.2-0.2l0.2-0.2l0.2-0.2l0.2-0.3l0.2-0.3l0.1-0.2l0.1-0.2
		l0.1-0.2l0.1-0.3l0.1-0.3l0-0.3l0-0.3l0-0.3L39,86.5L39,86.2l-0.1-0.3l-0.1-0.3l-0.2-0.3l-0.2-0.3l-0.2-0.2L38,84.6l-0.2-0.2
		l-0.3-0.2L37.2,84l-0.3-0.2l-0.3-0.1l-0.3-0.1L36,83.5l-0.3-0.1l-0.3,0l-0.3,0l-0.3,0l-0.3,0l-0.3,0h-8.5l-0.2,0l-0.2-0.1L25,83.2
		l-0.2-0.1l-0.2-0.1l-0.2-0.2l-0.2-0.2l-0.1-0.2l-0.1-0.2L24,82l-0.1-0.2l0-0.2v-3l0-0.2l0.1-0.2l0.1-0.2l0.1-0.2l0.1-0.2l0.2-0.2
		l0.2-0.2l0.2-0.1l0.2-0.1l0.2-0.1l0.2-0.1l0.2,0h10.4l0.5,0l0.5,0l0.4,0l0.4,0l0.4,0l0.4-0.1l0.4-0.1l0.3-0.1l0.3-0.1l0.3-0.1
		l0.3-0.2l0.3-0.2l0.2-0.2l0.2-0.2l0.2-0.2l0.2-0.2l0.1-0.2l0.1-0.2l0.1-0.2l0.1-0.2l0.1-0.2l0.1-0.2l0-0.2l0-0.2l0-0.2v-0.2l0-0.4
		l-0.1-0.4l-0.1-0.3l-0.1-0.3l-0.1-0.3l-0.2-0.3l-0.2-0.3l-0.2-0.3l-0.2-0.2l-0.2-0.2l-0.3-0.2l-0.3-0.2L40.1,69l-0.3-0.1l-0.4-0.1
		L39,68.7l-0.4-0.1l-0.4-0.1l-0.4,0l-0.4,0l-0.4,0l-0.4,0l-0.4,0H18.8l-0.5,0l-0.4,0l-0.4,0l-0.4,0.1l-0.4,0.1l-0.3,0.1l-0.3,0.1
		L15.8,69l-0.3,0.1l-0.2,0.1l-0.2,0.2l-0.2,0.2l-0.2,0.2l-0.2,0.2l-0.2,0.2l-0.1,0.2l-0.1,0.2L14,70.7l-0.1,0.2L13.8,71l-0.1,0.2
		l-0.1,0.2l-0.1,0.2l0,0.2l0,0.2l0,0.2l0,0.2l0,0.2l0,0.2l0,0.2l0,0.2l0,0.2l0,0.1v26.2l0,0.4l0,0.4l0,0.4l0,0.4l0,0.3l0,0.3
		l0.1,0.3l0.1,0.3l0.1,0.3l0.1,0.3l0.1,0.3l0.2,0.3l0.2,0.3l0.2,0.2l0.2,0.2l0.2,0.2l0.3,0.2l0.3,0.2l0.3,0.1l0.3,0.1l0.3,0.1
		l0.3,0.1l0.3,0.1l0.3,0l0.3,0l0.3,0l0.3,0l0.3,0l0.3,0h16.8l0.4,0l0.4,0l0.4,0l0.4,0l0.4,0l0.4,0l0.4-0.1l0.4-0.1l0.4-0.1l0.3-0.1
		l0.3-0.1l0.3-0.1l0.3-0.2l0.3-0.2l0.3-0.2l0.1-0.1l0.1-0.2l0.1-0.2l0.1-0.2l0.1-0.2l0.1-0.2l0.1-0.2l0.1-0.3l0.1-0.3l0.1-0.3l0-0.3
		l0-0.3l0-0.3l0-0.3l-0.1-0.3l-0.1-0.3L42,99.8l-0.1-0.3l-0.1-0.3L41.5,99l-0.2-0.2l-0.2-0.2L40.9,98.3z"/>
	<path class="st0" d="M45.2,98.8l0.1-0.3l0.2-0.3l0.2-0.2l0.2-0.3l0.2-0.3l0,0l0.2-0.3l0,0l0.2-0.3l0,0l0.2-0.3l0.2-0.3l15-17.4
		c0,0,0,0,0,0l0.1-0.1c0,0,0,0,0,0l0.1-0.2c0,0,0,0,0-0.1l0.1-0.2c0,0,0,0,0-0.1l0.1-0.1c0,0,0-0.1,0-0.1l0-0.2c0,0,0-0.1,0-0.1
		l0-0.1c0,0,0-0.1,0-0.1l0-0.1c0,0,0-0.1,0-0.1l0-0.1c0,0,0-0.1,0-0.1L62.3,77c0,0,0-0.1-0.1-0.1l-0.1-0.1c0,0,0-0.1-0.1-0.1
		l-0.1-0.1c0,0,0,0-0.1-0.1l-0.1-0.1c0,0-0.1,0-0.1,0l-0.2-0.1c0,0,0,0-0.1,0l-0.2-0.1c0,0,0,0-0.1,0L61,76.2c0,0,0,0-0.1,0l-0.2,0
		c0,0,0,0-0.1,0l-0.3,0H49.7h-0.3h-0.3l-0.3,0l-0.2,0l-0.2,0l0,0l-0.2,0l0,0L48,76l-0.2,0l-0.2,0l-0.2-0.1l-0.1,0l0,0l-0.2-0.1
		L47,75.8l-0.3-0.1l-0.3-0.1l-0.2-0.2L46,75.2l-0.2-0.1l-0.2-0.2l-0.1-0.2l-0.1-0.2l-0.1-0.2l0,0l-0.1-0.2l-0.1-0.2l-0.1-0.2
		L45,73.5l0,0l0-0.2l0,0l0-0.2l0-0.2l0-0.1l0-0.2v0l0-0.3l0-0.3l0.1-0.2l0.1-0.3l0.1-0.3l0.1-0.2l0.2-0.3l0.1-0.2l0.2-0.2l0.2-0.2
		l0.2-0.2l0.3-0.2l0.3-0.1l0.3-0.1l0.3-0.1l0.3-0.1l0.3-0.1l0,0l0.4-0.1l0,0l0.3,0l0.4,0h0.4h20.5l0.2,0l0.2,0h0l0.2,0l0.2,0h0
		l0.2,0l0,0l0.2,0l0.2,0l0.2,0l0,0l0.2,0l0,0l0.2,0.1l0.2,0.1l0.2,0.1l0.2,0.1l0.2,0.1l0.2,0.1l0.2,0.1l0.2,0.1l0.2,0.1l0.2,0.1
		l0.2,0.2l0.2,0.2l0.1,0.1l0.2,0.2l0.1,0.2l0.1,0.2l0.1,0.2l0.1,0.2l0.1,0.3l0.1,0.3l0.1,0.3l0,0.3l0,0.3l0,0.4l0,0.4l0,0.3
		l-0.1,0.4L75.6,75l-0.1,0.3l-0.1,0.3L75.3,76l-0.1,0.3l-0.2,0.3l-0.2,0.3l-0.2,0.3l0,0l-0.2,0.3L74,77.9h0l-0.3,0.3l-0.3,0.4
		L73.1,79L59,95.4c0,0,0,0,0,0l-0.1,0.2c0,0,0,0,0,0.1l-0.1,0.2c0,0,0,0.1,0,0.1L58.6,96c0,0,0,0.1,0,0.1l0,0.2c0,0,0,0.1,0,0.1
		l0,0.2c0,0,0,0.1,0,0.1l0,0.2c0,0,0,0.1,0,0.1l0,0.1c0,0,0,0.1,0,0.1l0.1,0.1c0,0,0,0.1,0.1,0.1l0.1,0.1c0,0,0,0.1,0.1,0.1l0.1,0.1
		c0,0,0.1,0,0.1,0.1l0.1,0.1c0,0,0.1,0,0.1,0.1l0.1,0.1c0,0,0.1,0,0.1,0l0.2,0c0,0,0.1,0,0.1,0l0.2,0h10.4l0.5,0l0.4,0l0.5,0l0,0
		l0.4,0l0,0l0.4,0.1l0.4,0.1l0.3,0.1l0.4,0.1l0.3,0.1l0.2,0.1l0.3,0.2l0.2,0.2l0.2,0.2l0.1,0.2l0.2,0.2l0.1,0.2l0.1,0.2l0.1,0.2
		l0.1,0.2l0.1,0.2l0,0.2l0,0.2l0,0.2l0,0.2l0,0.3l0,0.2l-0.1,0.3l-0.1,0.3l-0.1,0.2l-0.1,0.2l-0.1,0.2l-0.2,0.2l-0.1,0.2l-0.2,0.2
		l-0.2,0.2l-0.2,0.2l-0.2,0.1l-0.2,0.1l-0.2,0.1l-0.2,0.1l-0.2,0.1l-0.2,0.1l-0.2,0.1l0,0l-0.2,0l-0.2,0l-0.2,0l-0.2,0l0,0l-0.2,0
		l-0.2,0l-0.2,0H49.9h-0.3l-0.3,0l-0.3,0l-0.3,0l-0.3,0l-0.3-0.1l-0.2-0.1l-0.3-0.1l-0.2-0.1l-0.3-0.1l-0.2-0.1l-0.3-0.2l0,0
		l-0.1-0.1l-0.1-0.1l-0.1-0.1h0l-0.1-0.1l-0.1-0.1l-0.1-0.2l-0.1-0.1l-0.1-0.2l-0.1-0.1l0,0l-0.1-0.2l-0.1-0.2l-0.1-0.2l-0.1-0.2
		l-0.1-0.3v0l-0.1-0.3l-0.1-0.3v0l0-0.3l0-0.3v0l0-0.3l0-0.3l0.1-0.3l0.1-0.3l0.1-0.3L45.2,98.8z"/>
	<path class="st3" d="M73.8,97.9l-0.4-0.1L73,97.6l-0.4-0.1l-0.4-0.1l-0.4,0l-0.5,0l-0.5,0h-0.5H60l-0.2,0l-0.2,0l-0.1-0.1l-0.1-0.1
		l-0.1-0.1L59.2,97l-0.1-0.1l0-0.1l0-0.2l0-0.2l0-0.2l0.1-0.2l0.1-0.2l0.1-0.2l14.1-16.4l0.3-0.4l0.3-0.4l0.3-0.4l0.3-0.3l0.2-0.3
		l0.2-0.3l0.2-0.3l0.2-0.3l0.2-0.3l0.2-0.3l0.1-0.3l0.1-0.4l0.1-0.4l0.1-0.4l0-0.4l0-0.4v-0.4l0-0.4l-0.1-0.4L76.2,72l-0.1-0.3
		L76,71.4l-0.1-0.3l-0.1-0.3l-0.2-0.2l-0.2-0.2l-0.2-0.2L75,70l-0.2-0.2l-0.2-0.2l-0.2-0.1l-0.2-0.1l-0.2-0.1l-0.2-0.1l-0.2-0.1
		L73.1,69l-0.2-0.1l-0.3-0.1l-0.2-0.1l-0.2-0.1l-0.2,0l-0.2,0l-0.2,0l-0.2,0l-0.2,0l-0.2,0l-0.2,0l-0.2,0l-0.2,0H49.6h-0.5l-0.4,0
		l-0.4,0l-0.4,0.1l-0.4,0.1l-0.4,0.1L46.8,69l-0.3,0.2l-0.3,0.2l-0.3,0.2l-0.3,0.2l-0.2,0.2l-0.2,0.2l-0.2,0.3l-0.2,0.3l-0.1,0.3
		l-0.1,0.3l-0.1,0.3L44.4,72l0,0.3l0,0.3v0.2l0,0.2l0,0.2l0,0.2l0.1,0.2l0.1,0.2l0.1,0.2l0.1,0.2l0.1,0.2l0.1,0.2l0.2,0.2l0.2,0.2
		l0.2,0.2l0.2,0.2l0.2,0.2l0.3,0.2l0.3,0.2l0.3,0.1l0.2,0.1l0.2,0.1l0.2,0.1l0.2,0.1l0.2,0l0.2,0l0.2,0l0.2,0l0.2,0l0.2,0l0.3,0h0.3
		h0.3H50h0.4h10l0.3,0l0.2,0l0.2,0.1l0.2,0.1l0.2,0.1l0.1,0.1l0.1,0.1l0.1,0.1l0.1,0.1l0,0.1l0,0.1l0,0.1l0,0.2L61.8,78l-0.1,0.2
		l-0.1,0.2l-0.1,0.1l-15,17.4l-0.3,0.3L46,96.5l-0.2,0.3l-0.2,0.3l-0.2,0.3l-0.2,0.3L45,98l-0.2,0.3l-0.1,0.3l-0.1,0.3l-0.1,0.3
		l-0.1,0.3l-0.1,0.3l0,0.4l0,0.4l0,0.4l0,0.3l0.1,0.3l0.1,0.3l0.1,0.3l0.1,0.3l0.1,0.2l0.1,0.2l0.1,0.2l0.1,0.2l0.1,0.2l0.1,0.2
		l0.1,0.2l0.1,0.1l0.1,0.1l0.1,0.1l0.1,0.1l0.1,0.1l0.3,0.2l0.3,0.2l0.3,0.1l0.3,0.1l0.3,0.1l0.3,0.1l0.3,0.1l0.3,0l0.3,0l0.3,0
		l0.3,0h0.3h0.3h21.3l0.2,0l0.2,0l0.2,0l0.2,0l0.2,0l0.3,0l0.3-0.1l0.3-0.1l0.3-0.1l0.3-0.1l0.3-0.1l0.2-0.1l0.2-0.1l0.2-0.2
		l0.2-0.2l0.2-0.2l0.2-0.2l0.2-0.3l0.2-0.3l0.1-0.2l0.1-0.3l0.1-0.3l0.1-0.3l0.1-0.3l0-0.3l0-0.3l0-0.2l0-0.2l0-0.2l-0.1-0.2
		l-0.1-0.2l-0.1-0.2L76,99.7l-0.1-0.2l-0.2-0.2L75.5,99l-0.2-0.2l-0.2-0.2l-0.3-0.2l-0.3-0.2L74.2,98L73.8,97.9z"/>
</g>
<g>
	<path class="st0" d="M219.6,81.7v8.2c0,0.4,0.3,0.6,0.7,0.6c0.4,0,0.7-0.2,0.7-0.6v-8.2h2.8c0.3,0,0.5-0.3,0.5-0.7
		s-0.2-0.7-0.5-0.7h-7.1c-0.4,0-0.6,0.3-0.6,0.7s0.2,0.7,0.6,0.7C216.8,81.7,219.6,81.7,219.6,81.7z"/>
	<path class="st0" d="M233.5,85.3c0.4-0.9,0.9-2.8,1.2-3.7c-0.1,2-0.2,4.1-0.2,6.1v2.3c0,0.4,0.3,0.6,0.7,0.6c0.4,0,0.7-0.2,0.7-0.6
		v-8.8c0-0.5-0.4-0.8-1-0.8c-0.7,0-1,0.2-1.2,0.8l-2.1,5.4c-0.3,0.8-0.7,1.9-0.8,2.6c-0.1-0.7-0.5-1.8-0.8-2.6l-2.1-5.5
		c-0.2-0.6-0.5-0.8-1.2-0.8c-0.5,0-1,0.3-1,0.8v8.8c0,0.4,0.3,0.6,0.7,0.6c0.4,0,0.7-0.2,0.7-0.6v-2.3c0-2-0.1-4-0.2-6.1
		c0.3,0.9,0.8,2.7,1.2,3.7l1.7,4.5c0.2,0.5,0.5,0.7,1,0.7s0.8-0.2,0.9-0.7L233.5,85.3z"/>
</g>
<path class="st0" d="M208,85.6c-0.5,0-0.7,0.4-0.7,0.9s0.2,0.9,0.7,0.9l0.9,0c1.9,0,3,0.8,3,2.3c0,1.5-1.2,2.3-2.8,2.3
	c-1.6,0-2.4-0.6-2.8-1.6c-0.2-0.4-0.4-0.6-0.8-0.6c-0.1,0-0.2,0-0.4,0.1c-0.4,0.1-0.7,0.4-0.7,0.8c0,0.1,0,0.2,0.1,0.3
	c0.6,1.4,1.9,2.6,4.6,2.6c3,0,4.8-1.6,4.8-3.8c0-1.9-1-3.1-2.9-3.3c1.7-0.4,2.5-1.5,2.5-3.1c0-2.1-1.7-3.4-4.2-3.4
	c-2.7,0-3.8,1.2-4.3,2.5c0,0.1-0.1,0.2-0.1,0.4c0,0.3,0.2,0.6,0.6,0.7c0.2,0.1,0.3,0.1,0.5,0.1c0.3,0,0.5-0.1,0.7-0.5
	c0.4-1,1.1-1.6,2.5-1.6c1.5,0,2.5,0.8,2.5,2c0,1.4-1,2.2-2.6,2.2c0,0-0.1,0-0.1,0L208,85.6z"/>
</svg>
